# xmcd CD database file
#
# Track frame offsets:
#	150
#	11598
#	21990
#	33681
#	45029
#	58350
#	68928
#	80276
#	93513
#	101468
#	119861
#	134481
#	144272
#	159668
#	172535
#	185750
#	198846
#	213774
#	227532
#	240863
#	253191
#	270889
#	290632
#	305981
#
# Disc length: 4340 seconds
#
# Revision: 0
# Processed by: cddbd v1.4PL0 Copyright (c) Steve Scherf et al.
# Submitted via: CDex 1.50beta8
#
DISCID=4f10f218
DTITLE=Hank Williams Jr - All Williamses Compilation
DYEAR=2003
DGENRE=Country
TTITLE0=I'll Never Get Out Of This Wor
TTITLE1=Move It On Over
TTITLE2=Moanin' The Blues
TTITLE3=Never Again (Will I Knock On Y
TTITLE4=I'm A Long Gone Daddy
TTITLE5=Honky Tonk Blues
TTITLE6=I Won't Be Home Anymore
TTITLE7=Neath A Cold Grey Tomb Of Ston
TTITLE8=Where the Soul of Man Never Di
TTITLE9=Hand Me Down
TTITLE10=Men with Broken Hearts
TTITLE11=Lost Highway
TTITLE12=I Don't Know
TTITLE13=You're The Reason
TTITLE14=If The Shoe Fits
TTITLE15=87 Southbound
TTITLE16=Lonesome For You
TTITLE17=What Did Love Ever Do To You
TTITLE18=On My Own
TTITLE19=Honky Tonk Girls
TTITLE20=Cocaine Blues
TTITLE21=Thunderstorms and Neon Signs
TTITLE22=Mississippi Mud
TTITLE23=5 Shots Of Whiskey
EXTD=YEAR: 2003
EXTT0=
EXTT1=
EXTT2=
EXTT3=
EXTT4=
EXTT5=
EXTT6=
EXTT7=
EXTT8=
EXTT9=
EXTT10=
EXTT11=
EXTT12=
EXTT13=
EXTT14=
EXTT15=
EXTT16=
EXTT17=
EXTT18=
EXTT19=
EXTT20=
EXTT21=
EXTT22=
EXTT23=
PLAYORDER=
